<mxfile host="65bd71144e">
    <diagram id="UcV7zBs-6g5sqdMf0W3B" name="Page-1">
        <mxGraphModel dx="800" dy="523" grid="1" gridSize="10" guides="1" tooltips="1" connect="1" arrows="1" fold="1" page="1" pageScale="1" pageWidth="850" pageHeight="1100" math="0" shadow="0">
            <root>
                <mxCell id="0"/>
                <mxCell id="1" parent="0"/>
                <mxCell id="4" style="edgeStyle=none;html=1;entryX=0.033;entryY=0.671;entryDx=0;entryDy=0;entryPerimeter=0;exitX=0.5;exitY=0;exitDx=0;exitDy=0;" parent="1" target="29" edge="1" source="2">
                    <mxGeometry relative="1" as="geometry">
                        <mxPoint x="220" y="220" as="sourcePoint"/>
                        <mxPoint x="290" y="140" as="targetPoint"/>
                    </mxGeometry>
                </mxCell>
                <mxCell id="6" value="rising=1" style="edgeLabel;html=1;align=center;verticalAlign=middle;resizable=0;points=[];fontSize=18;" parent="4" vertex="1" connectable="0">
                    <mxGeometry x="-0.3433" y="-3" relative="1" as="geometry">
                        <mxPoint x="4" y="-17" as="offset"/>
                    </mxGeometry>
                </mxCell>
                <mxCell id="2" value="&lt;font style=&quot;font-size: 18px&quot;&gt;A&lt;br&gt;&lt;span style=&quot;font-size: 16px&quot;&gt;thres = 0&lt;/span&gt;&lt;br&gt;&lt;/font&gt;" style="ellipse;whiteSpace=wrap;html=1;aspect=fixed;" parent="1" vertex="1">
                    <mxGeometry x="190" y="280" width="80" height="80" as="geometry"/>
                </mxCell>
                <mxCell id="11" value="" style="endArrow=classic;html=1;fontSize=18;entryX=0;entryY=0.5;entryDx=0;entryDy=0;" parent="1" target="2" edge="1">
                    <mxGeometry width="50" height="50" relative="1" as="geometry">
                        <mxPoint x="150" y="320" as="sourcePoint"/>
                        <mxPoint x="180" y="190" as="targetPoint"/>
                    </mxGeometry>
                </mxCell>
                <mxCell id="12" value="reset" style="edgeLabel;html=1;align=center;verticalAlign=middle;resizable=0;points=[];fontSize=18;" parent="1" vertex="1" connectable="0">
                    <mxGeometry x="110.0014141046048" y="329.99572875253807" as="geometry">
                        <mxPoint x="8" y="-8" as="offset"/>
                    </mxGeometry>
                </mxCell>
                <mxCell id="31" style="edgeStyle=none;html=1;exitX=1;exitY=0.5;exitDx=0;exitDy=0;entryX=0;entryY=0.5;entryDx=0;entryDy=0;" parent="1" source="29" target="30" edge="1">
                    <mxGeometry relative="1" as="geometry"/>
                </mxCell>
                <mxCell id="29" value="&lt;font&gt;&lt;span style=&quot;font-size: 18px&quot;&gt;B&lt;/span&gt;&lt;br&gt;&lt;font style=&quot;font-size: 16px&quot;&gt;thres = 0&lt;/font&gt;&lt;/font&gt;" style="ellipse;whiteSpace=wrap;html=1;aspect=fixed;" parent="1" vertex="1">
                    <mxGeometry x="270" y="150" width="80" height="80" as="geometry"/>
                </mxCell>
                <mxCell id="35" style="edgeStyle=none;html=1;exitX=1;exitY=0.5;exitDx=0;exitDy=0;" parent="1" source="30" target="34" edge="1">
                    <mxGeometry relative="1" as="geometry"/>
                </mxCell>
                <mxCell id="30" value="&lt;font style=&quot;font-size: 18px&quot;&gt;C&lt;br&gt;&lt;span style=&quot;font-size: 16px&quot;&gt;thres = 0&lt;/span&gt;&lt;br&gt;&lt;/font&gt;" style="ellipse;whiteSpace=wrap;html=1;aspect=fixed;" parent="1" vertex="1">
                    <mxGeometry x="430" y="150" width="80" height="80" as="geometry"/>
                </mxCell>
                <mxCell id="32" value="rising=1" style="edgeLabel;html=1;align=center;verticalAlign=middle;resizable=0;points=[];fontSize=18;" parent="1" vertex="1" connectable="0">
                    <mxGeometry x="389.9964300960375" y="180.00053891152848" as="geometry">
                        <mxPoint x="1" y="-3" as="offset"/>
                    </mxGeometry>
                </mxCell>
                <mxCell id="51" style="edgeStyle=none;html=1;exitX=0.5;exitY=1;exitDx=0;exitDy=0;entryX=0.5;entryY=0;entryDx=0;entryDy=0;startArrow=none;startFill=0;endArrow=classic;endFill=1;" parent="1" source="34" target="49" edge="1">
                    <mxGeometry relative="1" as="geometry"/>
                </mxCell>
                <mxCell id="34" value="&lt;font style=&quot;font-size: 18px&quot;&gt;D&lt;br&gt;&lt;span style=&quot;font-size: 16px&quot;&gt;thres = 0&lt;/span&gt;&lt;br&gt;&lt;/font&gt;" style="ellipse;whiteSpace=wrap;html=1;aspect=fixed;" parent="1" vertex="1">
                    <mxGeometry x="580" y="200" width="80" height="80" as="geometry"/>
                </mxCell>
                <mxCell id="36" value="rising=1" style="edgeLabel;html=1;align=center;verticalAlign=middle;resizable=0;points=[];fontSize=18;" parent="1" vertex="1" connectable="0">
                    <mxGeometry x="549.9964300960376" y="200.00053891152848" as="geometry">
                        <mxPoint x="1" y="-3" as="offset"/>
                    </mxGeometry>
                </mxCell>
                <mxCell id="38" style="edgeStyle=none;html=1;entryX=0;entryY=0;entryDx=0;entryDy=0;endArrow=none;endFill=0;startArrow=classic;startFill=1;exitX=0.5;exitY=1;exitDx=0;exitDy=0;" parent="1" source="2" target="45" edge="1">
                    <mxGeometry relative="1" as="geometry">
                        <mxPoint x="229.14427124746214" y="440.00427124746216" as="sourcePoint"/>
                        <mxPoint x="300.86" y="341.72" as="targetPoint"/>
                    </mxGeometry>
                </mxCell>
                <mxCell id="39" value="rising=1" style="edgeLabel;html=1;align=center;verticalAlign=middle;resizable=0;points=[];fontSize=18;" parent="38" vertex="1" connectable="0">
                    <mxGeometry x="-0.3433" y="-3" relative="1" as="geometry">
                        <mxPoint x="12" y="10" as="offset"/>
                    </mxGeometry>
                </mxCell>
                <mxCell id="44" style="edgeStyle=none;html=1;exitX=1;exitY=0.5;exitDx=0;exitDy=0;entryX=0;entryY=0.5;entryDx=0;entryDy=0;endArrow=none;endFill=0;startArrow=classic;startFill=1;" parent="1" source="45" target="47" edge="1">
                    <mxGeometry relative="1" as="geometry"/>
                </mxCell>
                <mxCell id="45" value="&lt;font style=&quot;font-size: 18px&quot;&gt;G&lt;br&gt;&lt;span style=&quot;font-size: 16px&quot;&gt;thres = 0&lt;/span&gt;&lt;br&gt;&lt;/font&gt;" style="ellipse;whiteSpace=wrap;html=1;aspect=fixed;" parent="1" vertex="1">
                    <mxGeometry x="270" y="421.72" width="80" height="80" as="geometry"/>
                </mxCell>
                <mxCell id="46" style="edgeStyle=none;html=1;exitX=1;exitY=0.5;exitDx=0;exitDy=0;endArrow=none;endFill=0;startArrow=classic;startFill=1;" parent="1" source="47" edge="1">
                    <mxGeometry relative="1" as="geometry">
                        <mxPoint x="594.7152051861462" y="440.2729203107781" as="targetPoint"/>
                    </mxGeometry>
                </mxCell>
                <mxCell id="47" value="&lt;font style=&quot;font-size: 18px&quot;&gt;F&lt;br&gt;&lt;span style=&quot;font-size: 16px&quot;&gt;thres = 0&lt;/span&gt;&lt;br&gt;&lt;/font&gt;" style="ellipse;whiteSpace=wrap;html=1;aspect=fixed;" parent="1" vertex="1">
                    <mxGeometry x="430" y="421.72" width="80" height="80" as="geometry"/>
                </mxCell>
                <mxCell id="48" value="rising=1" style="edgeLabel;html=1;align=center;verticalAlign=middle;resizable=0;points=[];fontSize=18;" parent="1" vertex="1" connectable="0">
                    <mxGeometry x="389.9964300960375" y="480.00053891152845" as="geometry">
                        <mxPoint x="1" y="-3" as="offset"/>
                    </mxGeometry>
                </mxCell>
                <mxCell id="49" value="&lt;font style=&quot;font-size: 18px&quot;&gt;E&lt;br&gt;&lt;span style=&quot;font-size: 16px&quot;&gt;thres = 0&lt;/span&gt;&lt;br&gt;&lt;/font&gt;" style="ellipse;whiteSpace=wrap;html=1;aspect=fixed;" parent="1" vertex="1">
                    <mxGeometry x="580.86" y="360" width="80" height="80" as="geometry"/>
                </mxCell>
                <mxCell id="50" value="rising=1" style="edgeLabel;html=1;align=center;verticalAlign=middle;resizable=0;points=[];fontSize=18;" parent="1" vertex="1" connectable="0">
                    <mxGeometry x="569.9964300960376" y="460.00053891152845" as="geometry">
                        <mxPoint x="1" y="-3" as="offset"/>
                    </mxGeometry>
                </mxCell>
                <mxCell id="54" value="rising=1" style="edgeLabel;html=1;align=center;verticalAlign=middle;resizable=0;points=[];fontSize=18;" parent="1" vertex="1" connectable="0">
                    <mxGeometry x="619.9983196953885" y="310.00027074523507" as="geometry"/>
                </mxCell>
                <mxCell id="55" value="Z = 1, se baud &amp;gt; thres&lt;br&gt;Z = 0, caso contrÃ¡rio" style="edgeLabel;html=1;align=center;verticalAlign=middle;resizable=0;points=[];fontSize=18;" vertex="1" connectable="0" parent="1">
                    <mxGeometry x="430.0020982225425" y="329.99351525038753" as="geometry"/>
                </mxCell>
            </root>
        </mxGraphModel>
    </diagram>
</mxfile>